#N canvas 515 398 451 343 10;
#X obj 14 17 inlet controles;
#X obj 131 277 outlet~;
#X obj 50 127 select 1;
#N canvas 50 129 669 436 metronomo 0;
#X obj 384 -102 + 1;
#X obj 354 -72 % 3;
#X obj 354 -102 f 0;
#X obj 288 66 demux 1 2 3;
#X obj 287 -102 timer;
#X obj 288 93 f;
#X obj 318 93 f;
#X obj 360 92 f;
#X obj 354 -44 + 1;
#X obj 288 -133 t b b b;
#X obj 302 -36 < 5000;
#X obj 272 6 spigot;
#X obj 285 -78 t f f;
#X obj 318 121 t b f;
#X obj 360 121 t b f;
#X obj 288 148 expr ($f1+$f2+$f3)/3;
#X text 132 125 promedio de los 3 ultimos \; tiempos en ms;
#X msg 457 117 120;
#X obj 455 68 loadbang;
#X text 522 79 Default 120 bpm;
#X obj 455 90 delay 300;
#X obj 288 -162 inlet bang;
#X obj 457 145 expr 60000/$f1;
#X text 554 143 convertir de bpm a ms;
#X obj 288 218 outlet;
#X text 335 218 Tempo en milisegundos;
#X connect 0 0 2 1;
#X connect 1 0 8 0;
#X connect 2 0 0 0;
#X connect 2 0 1 0;
#X connect 3 0 5 0;
#X connect 3 1 6 0;
#X connect 3 2 7 0;
#X connect 4 0 12 0;
#X connect 5 0 15 0;
#X connect 6 0 13 0;
#X connect 7 0 14 0;
#X connect 8 0 3 1;
#X connect 9 0 4 0;
#X connect 9 1 4 1;
#X connect 9 2 2 0;
#X connect 10 0 11 1;
#X connect 11 0 3 0;
#X connect 12 0 11 0;
#X connect 12 1 10 0;
#X connect 13 0 15 0;
#X connect 13 1 15 1;
#X connect 14 0 15 0;
#X connect 14 1 15 2;
#X connect 15 0 24 0;
#X connect 17 0 22 0;
#X connect 18 0 20 0;
#X connect 20 0 17 0;
#X connect 21 0 9 0;
#X connect 22 0 24 0;
#X restore 50 148 pd metronomo;
#X msg 50 168 tempo \$1;
#X obj 131 228 armonizador;
#X obj 14 51 route forma on tempo;
#X obj 195 166 print m;
#X obj 214 268 print o;
#X connect 0 0 6 0;
#X connect 2 0 3 0;
#X connect 3 0 4 0;
#X connect 4 0 5 0;
#X connect 4 0 7 0;
#X connect 5 0 8 0;
#X connect 6 2 2 0;
#X connect 6 3 5 0;
#X connect 6 3 7 0;
